<?xml version="1.0" encoding="UTF-8"?>
<svg width="64" height="64" version="1.1" xmlns="http://www.w3.org/2000/svg"><g fill="#fff" fill-rule="evenodd"><path d="m6 0c-3.324 0-6 2.676-6 6s2.676 6 6 6h15.94v0.0098c0.1862-0.006496 0.3726-0.0098 0.5605-0.0098 8.631 0 15.5 6.869 15.5 15.5s-6.869 15.5-15.5 15.5c-0.188 0-0.3743-0.0033-0.5605-0.0098h-11.94v0.0098h-4c-0.01181 0-0.02336-6.7e-5 -0.03516 0-0.01172-6.7e-5 -0.02342 0-0.03516 0-3.285 0-5.93 2.645-5.93 5.93v9.141c0 3.285 2.645 5.93 5.93 5.93s5.93-2.645 5.93-5.93v-3.07h10.08v-0.0059c0.1867 0.003834 0.373 0.0059 0.5605 0.0059 15.12 0 27.5-12.38 27.5-27.5s-12.38-27.5-27.5-27.5c-0.1673 0-0.3336 8.599e-4 -0.5 0.003906v-0.003906h-6z" stop-color="#000000"/><path transform="matrix(.7072 -.707 .7072 .707 0 0)" d="m-0.008844 66.12c3.31 0 5.975 2.676 5.975 6v9.909c0 3.324-2.665 6-5.975 6s-5.975-2.676-5.975-6v-9.909c0-3.324 2.665-6 5.975-6z"/><path d="m9.5 18c-5.194 0-9.5 4.306-9.5 9.5s4.306 9.5 9.5 9.5h13c5.194 0 9.5-4.306 9.5-9.5s-4.306-9.5-9.5-9.5zm0 8h13c0.9002 0 1.5 0.5998 1.5 1.5s-0.5998 1.5-1.5 1.5h-13c-0.9002 0-1.5-0.5998-1.5-1.5s0.5998-1.5 1.5-1.5z" stop-color="#000000"/></g></svg>
