<?xml version="1.0" encoding="UTF-8" standalone="no"?>
<svg
   width="800"
   height="450"
   viewBox="0 0 211.66666 119.0625"
   version="1.1"
   id="svg8"
   xml:space="preserve"
   xmlns:xlink="http://www.w3.org/1999/xlink"
   xmlns="http://www.w3.org/2000/svg"
   xmlns:svg="http://www.w3.org/2000/svg"
   xmlns:rdf="http://www.w3.org/1999/02/22-rdf-syntax-ns#"
   xmlns:cc="http://creativecommons.org/ns#"
   xmlns:dc="http://purl.org/dc/elements/1.1/"><defs
     id="defs2"><linearGradient
       id="linearGradient18435"><stop
         style="stop-color:#ffffff;stop-opacity:1;"
         offset="0"
         id="stop18431" /><stop
         style="stop-color:#000000;stop-opacity:1;"
         offset="1"
         id="stop18433" /></linearGradient><marker
       style="overflow:visible"
       id="marker1163"
       refX="0"
       refY="0"
       orient="auto"><path
         transform="matrix(0.4,0,0,0.4,2.96,0.4)"
         style="fill:#000000;fill-opacity:1;fill-rule:evenodd;stroke:#000000;stroke-width:1pt;stroke-opacity:1"
         d="m -2.5,-1 c 0,2.76 -2.24,5 -5,5 -2.76,0 -5,-2.24 -5,-5 0,-2.76 2.24,-5 5,-5 2.76,0 5,2.24 5,5 z"
         id="path1161" /></marker><marker
       style="overflow:visible"
       id="marker1153"
       refX="0"
       refY="0"
       orient="auto"><path
         transform="matrix(0.4,0,0,0.4,2.96,0.4)"
         style="fill:#ffffff;fill-opacity:1;fill-rule:evenodd;stroke:#ffffff;stroke-width:1pt;stroke-opacity:0.981221"
         d="m -2.5,-1 c 0,2.76 -2.24,5 -5,5 -2.76,0 -5,-2.24 -5,-5 0,-2.76 2.24,-5 5,-5 2.76,0 5,2.24 5,5 z"
         id="path1151" /></marker><marker
       style="overflow:visible"
       id="marker1143"
       refX="0"
       refY="0"
       orient="auto"><path
         transform="matrix(0.4,0,0,0.4,2.96,0.4)"
         style="fill:#000000;fill-opacity:1;fill-rule:evenodd;stroke:#000000;stroke-width:1pt;stroke-opacity:1"
         d="m -2.5,-1 c 0,2.76 -2.24,5 -5,5 -2.76,0 -5,-2.24 -5,-5 0,-2.76 2.24,-5 5,-5 2.76,0 5,2.24 5,5 z"
         id="path1141" /></marker><marker
       style="overflow:visible"
       id="marker1133"
       refX="0"
       refY="0"
       orient="auto"><path
         transform="matrix(0.4,0,0,0.4,2.96,0.4)"
         style="fill:#ffffff;fill-opacity:1;fill-rule:evenodd;stroke:#ffffff;stroke-width:1pt;stroke-opacity:0.981221"
         d="m -2.5,-1 c 0,2.76 -2.24,5 -5,5 -2.76,0 -5,-2.24 -5,-5 0,-2.76 2.24,-5 5,-5 2.76,0 5,2.24 5,5 z"
         id="path1131" /></marker><marker
       orient="auto"
       refY="0"
       refX="0"
       id="marker1123"
       style="overflow:visible"><path
         id="path1121"
         d="m -2.5,-1 c 0,2.76 -2.24,5 -5,5 -2.76,0 -5,-2.24 -5,-5 0,-2.76 2.24,-5 5,-5 2.76,0 5,2.24 5,5 z"
         style="fill:#000000;fill-opacity:1;fill-rule:evenodd;stroke:#000000;stroke-width:1pt;stroke-opacity:1"
         transform="matrix(0.4,0,0,0.4,2.96,0.4)" /></marker><marker
       orient="auto"
       refY="0"
       refX="0"
       id="marker1107"
       style="overflow:visible"><path
         id="path1105"
         d="m -2.5,-1 c 0,2.76 -2.24,5 -5,5 -2.76,0 -5,-2.24 -5,-5 0,-2.76 2.24,-5 5,-5 2.76,0 5,2.24 5,5 z"
         style="fill:#000000;fill-opacity:1;fill-rule:evenodd;stroke:#000000;stroke-width:1pt;stroke-opacity:1"
         transform="matrix(0.4,0,0,0.4,2.96,0.4)" /></marker><marker
       orient="auto"
       refY="0"
       refX="0"
       id="marker1169"
       style="overflow:visible"><path
         id="path1167"
         d="m -2.5,-1 c 0,2.76 -2.24,5 -5,5 -2.76,0 -5,-2.24 -5,-5 0,-2.76 2.24,-5 5,-5 2.76,0 5,2.24 5,5 z"
         style="fill:#000000;fill-opacity:1;fill-rule:evenodd;stroke:#000000;stroke-width:1pt;stroke-opacity:1"
         transform="matrix(0.4,0,0,0.4,2.96,0.4)" /></marker><marker
       orient="auto"
       refY="0"
       refX="0"
       id="marker1033"
       style="overflow:visible"><path
         id="path1031"
         d="m -2.5,-1 c 0,2.76 -2.24,5 -5,5 -2.76,0 -5,-2.24 -5,-5 0,-2.76 2.24,-5 5,-5 2.76,0 5,2.24 5,5 z"
         style="fill:#ffffff;fill-opacity:1;fill-rule:evenodd;stroke:#ffffff;stroke-width:1pt;stroke-opacity:0.981221"
         transform="matrix(0.4,0,0,0.4,2.96,0.4)" /></marker><marker
       orient="auto"
       refY="0"
       refX="0"
       id="marker3840"
       style="overflow:visible"><path
         id="path3838"
         d="m -2.5,-1 c 0,2.76 -2.24,5 -5,5 -2.76,0 -5,-2.24 -5,-5 0,-2.76 2.24,-5 5,-5 2.76,0 5,2.24 5,5 z"
         style="fill:#ffffff;fill-opacity:1;fill-rule:evenodd;stroke:#ffffff;stroke-width:1pt;stroke-opacity:1"
         transform="matrix(0.4,0,0,0.4,2.96,0.4)" /></marker><marker
       style="overflow:visible"
       id="marker3440"
       refX="0"
       refY="0"
       orient="auto"><path
         transform="matrix(0.4,0,0,0.4,2.96,0.4)"
         style="fill:#ffffff;fill-opacity:1;fill-rule:evenodd;stroke:#ffffff;stroke-width:1pt;stroke-opacity:1"
         d="m -2.5,-1 c 0,2.76 -2.24,5 -5,5 -2.76,0 -5,-2.24 -5,-5 0,-2.76 2.24,-5 5,-5 2.76,0 5,2.24 5,5 z"
         id="path3438" /></marker><marker
       orient="auto"
       refY="0"
       refX="0"
       id="marker3102"
       style="overflow:visible"><path
         id="path3100"
         d="m -2.5,-1 c 0,2.76 -2.24,5 -5,5 -2.76,0 -5,-2.24 -5,-5 0,-2.76 2.24,-5 5,-5 2.76,0 5,2.24 5,5 z"
         style="fill:#ffffff;fill-opacity:1;fill-rule:evenodd;stroke:#ffffff;stroke-width:1pt;stroke-opacity:0.981221"
         transform="matrix(0.4,0,0,0.4,2.96,0.4)" /></marker><marker
       style="overflow:visible"
       id="marker1532"
       refX="0"
       refY="0"
       orient="auto"><path
         transform="matrix(0.4,0,0,0.4,2.96,0.4)"
         style="fill:#000000;fill-opacity:1;fill-rule:evenodd;stroke:#000000;stroke-width:1pt;stroke-opacity:1"
         d="m -2.5,-1 c 0,2.76 -2.24,5 -5,5 -2.76,0 -5,-2.24 -5,-5 0,-2.76 2.24,-5 5,-5 2.76,0 5,2.24 5,5 z"
         id="path1530" /></marker><mask
       maskUnits="userSpaceOnUse"
       id="mask1075"><path
         style="display:inline;fill:#ffffff;stroke:none;stroke-width:0.529169;stroke-linecap:butt;stroke-linejoin:miter;stroke-miterlimit:4;stroke-dasharray:none;stroke-opacity:1"
         d="m 129.39149,41.611378 c 7.75738,-0.0041 24.5173,4.06301 23.34576,12.249142 -1.09715,7.666339 3.91555,38.584164 3.36691,45.297016 -0.54864,6.712854 -11.52765,21.790294 -15.99947,23.181474 -3.7896,1.17895 -18.39097,1.01346 -22.86817,-0.63157 -4.13922,-1.52085 -11.048,-12.85098 -13.24985,-24.750174 -0.68749,-3.715311 -1.34264,-14.552422 -0.56126,-24.339113 0.1367,-1.712063 2.26778,-2.990316 2.23137,-4.653405 -0.22191,-10.136079 0.77752,-19.494468 2.78851,-21.137512 2.41333,-1.97177 10.20858,-5.210143 20.9462,-5.215858 z"
         id="path1077" /></mask><mask
       maskUnits="userSpaceOnUse"
       id="mask1085"><path
         id="path1087"
         style="fill:#00ff00;stroke:none;stroke-width:0.529167;stroke-linecap:butt;stroke-linejoin:miter;stroke-miterlimit:4;stroke-dasharray:none;stroke-opacity:1"
         d="m 69.950057,86.445017 c -3.118327,0.03328 -6.051947,0.43392 -8.541404,1.006491 0.439449,4.975545 0.784334,9.930831 1.129131,14.894702 0.162258,-0.59111 8.053736,-2.18832 7.621756,-11.596713 -0.06388,-1.391372 -0.08082,-2.922952 -0.209483,-4.30448 z" /></mask><mask
       maskUnits="userSpaceOnUse"
       id="mask37388"><path
         id="path37390"
         style="fill:#ffffff;fill-opacity:1;stroke:none;stroke-width:0.529169;stroke-linecap:butt;stroke-linejoin:miter;stroke-miterlimit:4;stroke-dasharray:none;stroke-opacity:1"
         d="m 139.76558,16.677018 c 0,0 -2.21515,-0.01217 -2.75746,0.467155 -1.76997,1.56444 -5.03146,3.842864 -11.5104,5.244124 -1.30261,0.516383 -2.06528,1.561148 -2.3611,3.701583 l -0.003,2.890263 c 0,0 -0.0297,19.195389 -0.1757,21.350118 -0.097,1.431161 1.11725,2.90834 2.24999,3.188952 4.16331,1.031383 7.71889,2.259925 9.15603,2.717665 1.43715,0.457742 2.79053,0.672827 2.79053,0.672827 l 4.35219,-0.01603 v -5.00693 c 0,-0.595953 0.47995,-1.075386 1.0759,-1.075386 h 0.62012 c -0.0225,-2.909896 -0.0495,-5.55194 -0.0672,-5.835303 -4.02864,-0.03811 -3.74861,-3.180168 -3.74861,-3.180168 l 0.13488,-14.497306 0.0672,-2.519742 c -0.013,-3.075573 0.17673,-8.101831 0.17673,-8.101831 z m 6.94841,0 c 0,0 0.15925,5.036439 0.14625,8.1132 l 0.10903,2.492872 0.12351,14.512808 c 0,0 0.28003,3.142062 -3.74861,3.180168 -0.0177,0.283363 -0.0446,2.925408 -0.0672,5.835303 h 0.60772 c 0.59595,0 1.07538,0.479433 1.07538,1.075386 v 5.006414 l 4.3646,0.01654 c 0,0 1.35389,-0.215085 2.79104,-0.672827 1.43714,-0.45774 5.32102,-1.647545 9.15551,-2.717665 1.12403,-0.31369 2.31809,-1.756103 2.25051,-3.188952 -0.15638,-3.315631 -0.17621,-21.350118 -0.17621,-21.350118 l -0.003,-2.890263 c -0.29583,-2.140421 -1.05849,-3.185197 -2.3611,-3.70158 -6.47894,-1.40126 -9.73992,-3.679684 -11.50989,-5.244124 -0.5423,-0.479321 -2.75746,-0.467155 -2.75746,-0.467155 z" /></mask><mask
       maskUnits="userSpaceOnUse"
       id="mask31647"><path
         id="path31649"
         style="fill:#ffffff;stroke:none;stroke-width:0.264583px;stroke-linecap:butt;stroke-linejoin:miter;stroke-opacity:1"
         d="m -5.2440343,52.798463 c -0.8364154,2.616717 -2.4533704,5.780881 -3.1932968,6.799139 -0.1571619,0.216282 -0.3805252,0.487809 -0.6266722,0.777222 l 1.5913501,1.59135 c 2.119172,2.119172 1.3708005,6.280101 -0.7483566,8.399258 -2.1191642,2.119165 -6.2800862,2.867529 -8.3992582,0.748357 l -1.566502,-1.566503 c -0.462658,0.409812 -0.887654,0.77079 -1.192691,0.992445 -1.017521,0.739392 -3.800942,1.980341 -6.418748,2.817292 0.0065,0.0054 0.240429,0.205369 0.240429,0.205369 0,0 4.193615,3.113182 7.802182,6.276241 0.500778,0.438976 4.877725,3.104312 6.393901,9.027758 1.6895021,6.600599 4.097526,11.380719 4.8449396,12.292679 0.7370583,0.89934 3.8760544,3.76541 8.2987688,4.48391 3.9173786,0.6364 8.0823297,0.30168 8.2340956,0.26383 0.151808,-0.0378 4.086621,0.0318 7.993654,-3.50938 0.485117,-0.43972 0.970601,-0.78644 2.986109,-2.801943 2.015495,-2.015495 2.361895,-2.500592 2.801582,-2.985745 3.541162,-3.907032 3.471552,-7.841846 3.509375,-7.993655 0.03782,-0.151807 -0.0016,-3.942546 -0.638002,-7.859917 -0.718508,-4.422714 -3.210032,-7.936254 -4.109373,-8.673311 -0.911965,-0.74741 -5.742224,-2.971314 -12.293042,-4.844575 -5.3386523,-1.526626 -8.5884273,-5.893478 -9.0273935,-6.394266 -3.1630726,-3.608553 -6.2762392,-7.802183 -6.2762392,-7.802183 0,0 -0.1921626,-0.226025 -0.2068135,-0.24337 z" /></mask><mask
       maskUnits="userSpaceOnUse"
       id="mask27238"><rect
         style="fill:url(#linearGradient27242);fill-opacity:1;fill-rule:evenodd;stroke-width:0.264583"
         id="rect27240"
         width="51.084499"
         height="94.737396"
         x="152.48047"
         y="61.033077"
         rx="0"
         ry="0" /></mask><linearGradient
       xlink:href="#linearGradient18435"
       id="linearGradient27242"
       gradientUnits="userSpaceOnUse"
       gradientTransform="matrix(1,0,0,2.3166185,0,-80.357279)"
       x1="161.52812"
       y1="75.957825"
       x2="161.52812"
       y2="78.505569" /></defs><metadata
     id="metadata5"><rdf:RDF><cc:Work
         rdf:about=""><dc:format>image/svg+xml</dc:format><dc:type
           rdf:resource="http://purl.org/dc/dcmitype/StillImage" /></cc:Work></rdf:RDF></metadata><g
     id="layer4"
     style="display:inline;opacity:1"><path
       style="fill:#ffffff;fill-opacity:1;stroke:#000000;stroke-width:1.05833;stroke-linecap:butt;stroke-linejoin:miter;stroke-dasharray:none;stroke-opacity:1"
       d="m 198.19466,72.892711 c 0.96363,2.861724 1.78593,14.552082 2.97656,26.987502 0.51655,5.395037 -0.28945,9.268037 -0.35648,13.406227 -0.0885,5.46632 0.82227,11.33877 1.15023,13.51514 0.75703,5.02385 -7.40833,19.11615 -11.77396,22.02657 -2.13258,1.42172 -5.8303,3.22423 -11.7114,3.17876 -4.20343,-0.0325 -7.52748,-0.78641 -11.83651,-3.11262 -5.44506,-2.93948 -13.91332,-18.05966 -13.62605,-25.20157 0.0691,-1.7184 1.45521,-8.20209 1.7198,-10.58334 0.26458,-2.38125 1.49282,-32.897224 1.78593,-36.71094 0.18318,-2.383391 6.53467,-14.287499 21.62969,-14.816667 14.93978,-0.523725 19.45733,9.574094 20.04219,11.310938 z"
       id="path15317"
       mask="url(#mask27238)" /><rect
       style="display:inline;fill:#e6e6e6;fill-opacity:1;fill-rule:evenodd;stroke-width:0.264583"
       id="rect16253"
       width="13.646613"
       height="9.2247581"
       x="34.089432"
       y="172.49982"
       rx="4.4901276"
       ry="4.911077"
       transform="rotate(-52.751409)" /><rect
       style="display:inline;fill:#e6e6e6;fill-opacity:1;fill-rule:evenodd;stroke-width:0.264583"
       id="rect16431"
       width="13.646613"
       height="9.2247581"
       x="-180.84006"
       y="-110.16124"
       rx="4.4901276"
       ry="4.911077"
       transform="matrix(-0.60527441,-0.79601689,-0.79601689,0.60527441,0,0)" /><circle
       style="fill:#ff7700;fill-opacity:1;fill-rule:evenodd;stroke:#000000;stroke-width:0.529167;stroke-dasharray:none;stroke-opacity:1"
       id="path16631"
       cx="170.14317"
       cy="93.396004"
       r="2.9773688" /><ellipse
       style="fill:#ff7700;fill-opacity:1;fill-rule:evenodd;stroke:#000000;stroke-width:0.529167;stroke-miterlimit:4;stroke-dasharray:none;stroke-opacity:1"
       id="ellipse9962"
       cx="40.017357"
       cy="48.161236"
       rx="3.5879514"
       ry="5.4860568"
       transform="matrix(0.95040501,-0.31101498,0.31287289,0.94979501,0,0)" /><path
       style="fill:#ffffff;fill-opacity:1;stroke:#000000;stroke-width:0.529167;stroke-linecap:butt;stroke-linejoin:miter;stroke-dasharray:none;stroke-opacity:1"
       d="m 93.331756,30.559375 c -0.96363,2.861724 -1.78593,14.552082 -2.97656,26.9875 -0.51655,5.395036 0.28945,9.268036 0.35648,13.406222 0.0885,5.466317 -0.82227,11.338762 -1.15023,13.515131 -0.757027,5.023852 7.408327,19.116142 11.773954,22.026562 2.13258,1.42172 5.8303,3.22423 11.7114,3.17876 4.20343,-0.0325 7.52748,-0.78641 11.83651,-3.11262 5.44506,-2.93948 13.91332,-18.05965 13.62605,-25.201556 -0.0691,-1.718403 -1.45521,-8.202083 -1.7198,-10.583333 -0.26458,-2.38125 -1.49282,-32.897221 -1.78593,-36.710937 -0.18318,-2.383391 -6.53467,-14.287499 -21.62969,-14.816667 -14.939777,-0.523725 -19.457324,9.574094 -20.042184,11.310938 z"
       id="path1321" /><path
       id="path2045"
       style="fill:none;stroke:#000000;stroke-width:0.529167;stroke-linecap:butt;stroke-linejoin:miter;stroke-dasharray:none;stroke-opacity:1"
       d="m 112.00348,19.229834 c -9.57592,0.08145 -14.561537,4.66121 -16.916277,8.036719 l -0.763257,23.665739 c 0,0 -0.018,2.826962 1.719787,3.439583 1.34561,0.47437 7.530657,1.733919 8.787577,1.80144 1.25692,0.06752 1.26262,-0.09348 2.15129,-0.561206 0.88867,-0.467718 1.684,-0.60797 2.90008,-0.65474 2.34191,0.07539 4.33026,0.08171 6.70399,0 1.21606,0.04677 2.01089,0.187022 2.89956,0.65474 0.88867,0.467727 0.89489,0.628726 2.15181,0.561206 1.25692,-0.06752 7.44145,-1.32707 8.78706,-1.80144 1.73779,-0.612621 1.71979,-3.439583 1.71979,-3.439583 l -0.75034,-23.267314 c -3.36253,-3.909935 -9.19495,-8.10715 -18.02061,-8.416541 -0.46687,-0.01637 -0.92375,-0.0224 -1.37046,-0.0186 z" /><path
       style="fill:none;stroke:#000000;stroke-width:0.529167;stroke-linecap:butt;stroke-linejoin:miter;stroke-dasharray:none;stroke-opacity:1"
       d="M 113.43721,54.957297 V 19.363677"
       id="path8342" /><rect
       style="fill:#ff7700;fill-opacity:1;fill-rule:evenodd;stroke:#000000;stroke-width:0.529167;stroke-miterlimit:4;stroke-dasharray:none;stroke-opacity:1"
       id="rect5208"
       width="6.0360899"
       height="14.138889"
       x="110.46149"
       y="25.775478"
       rx="2.5568454"
       ry="2.5568454" /><path
       style="fill:#ffffff;fill-opacity:1;stroke:#000000;stroke-width:0.529167;stroke-linecap:butt;stroke-linejoin:miter;stroke-dasharray:none;stroke-opacity:1"
       d="m 32.146873,22.225 v 86.38646 c 0,0 0.937397,0.96876 2.950201,1.24113 0.927796,0.12555 26.459331,-15.384004 27.924633,-44.798119 0.227537,-4.567526 0.300598,-8.95448 -0.864039,-12.820372 C 56.186716,32.414139 44.81198,20.484273 44.595585,20.368215 42.85673,19.435626 38.364581,18.388541 36.644789,19.314583 34.924998,20.240625 33.205206,21.166666 32.146873,22.225 Z"
       id="path9960" /><path
       id="path9968"
       style="fill:#e6e6e6;fill-opacity:1;stroke:none;stroke-width:0.529167;stroke-linecap:butt;stroke-linejoin:miter;stroke-dasharray:none;stroke-opacity:1"
       d="m 38.927338,18.96215 2.153357,6.014103 c 0,0 0.935226,1.403006 2.057755,1.49655 1.122531,0.09354 4.397029,0.561574 5.51956,1.964738 1.122531,1.403163 7.580924,12.366975 10.196277,25.256856 2.58266,12.72874 -6.039688,43.49076 -26.707414,52.504293 v 2.41277 c 0,0 0.937406,0.9689 2.950208,1.24127 0.927795,0.12555 26.459093,-15.384217 27.924394,-44.798303 0.227536,-4.567521 0.300605,-8.954518 -0.86403,-12.820406 C 56.186499,32.414081 44.812121,20.484324 44.595726,20.368266 43.405505,19.729922 40.925456,19.038289 38.927338,18.96215 Z" /><path
       style="fill:#ff7700;fill-opacity:1;stroke:#000000;stroke-width:0.529167;stroke-linecap:butt;stroke-linejoin:miter;stroke-dasharray:none;stroke-opacity:1"
       d="m 48.453253,49.706688 c 0.88491,8.544166 0.129465,15.771261 -0.112395,18.862643 -0.02882,0.368392 0.266053,0.665913 0.495968,0.865614 0.401577,0.413169 1.114108,0.927059 1.295434,1.031337 0.220163,0.126613 1.284955,0.632047 1.51892,0.112916 0.07765,-0.172299 4.701236,-12.566975 -0.420949,-22.918362 -0.295607,-0.597389 -0.725929,-0.559751 -1.16942,-0.343089 -0.897279,0.438355 -1.258865,0.944699 -1.485731,1.3892 -0.180892,0.354421 -0.140916,0.665501 -0.121827,0.999741 z"
       id="path10351" /><path
       style="fill:none;stroke:#000000;stroke-width:0.529167;stroke-linecap:butt;stroke-linejoin:miter;stroke-dasharray:none;stroke-opacity:1"
       d="m 48.891627,58.231349 4.677216,0.982215"
       id="path11600" /><path
       style="fill:none;stroke:#000000;stroke-width:1.05833;stroke-linecap:butt;stroke-linejoin:miter;stroke-dasharray:none;stroke-opacity:1"
       d="m 32.146873,22.225 v 86.38646 c 0,0 0.937397,0.96876 2.950201,1.24113 0.927796,0.12555 26.459331,-15.384004 27.924633,-44.798119 0.227537,-4.567526 0.300598,-8.95448 -0.864039,-12.820372 C 56.186716,32.414139 44.81198,20.484273 44.595585,20.368215 42.85673,19.435626 38.364581,18.388541 36.644789,19.314583 34.924998,20.240625 33.205206,21.166666 32.146873,22.225 Z"
       id="path13238" /><path
       style="fill:none;stroke:#000000;stroke-width:1.05833;stroke-linecap:butt;stroke-linejoin:miter;stroke-dasharray:none;stroke-opacity:1"
       d="m 93.331756,30.559375 c -0.96363,2.861724 -1.78593,14.552082 -2.97656,26.9875 -0.51655,5.395036 0.28945,9.268036 0.35648,13.406222 0.0885,5.466317 -0.82227,11.338762 -1.15023,13.515131 -0.757027,5.023852 7.408327,19.116142 11.773954,22.026562 2.13258,1.42172 5.8303,3.22423 11.7114,3.17876 4.20343,-0.0325 7.52748,-0.78641 11.83651,-3.11262 5.44506,-2.93948 13.91332,-18.05965 13.62605,-25.201556 -0.0691,-1.718403 -1.45521,-8.202083 -1.7198,-10.583333 -0.26458,-2.38125 -1.49282,-32.897221 -1.78593,-36.710937 -0.18318,-2.383391 -6.53467,-14.287499 -21.62969,-14.816667 -14.939777,-0.523725 -19.457324,9.574094 -20.042184,11.310938 z"
       id="path8340" /><rect
       style="fill:none;fill-rule:evenodd;stroke:#e6e6e6;stroke-width:3.70417;stroke-dasharray:none;stroke-opacity:1"
       id="rect785"
       width="9.260416"
       height="17.991667"
       x="178.06459"
       y="90.487495"
       rx="4.630208"
       ry="4.630208" /></g><g
     id="layer2"
     style="display:inline;opacity:1"><path
       style="fill:none;stroke:#fefefe;stroke-width:1.5875;stroke-linecap:butt;stroke-linejoin:miter;stroke-miterlimit:4;stroke-dasharray:none;stroke-opacity:1"
       d="M 104.24582,26.458296 93.662496,13.229132 H 77.787505"
       id="path1531" /><path
       style="fill:none;stroke:#fefefe;stroke-width:1.5875;stroke-linecap:butt;stroke-linejoin:miter;stroke-miterlimit:4;stroke-dasharray:none;stroke-opacity:1"
       d="m 113.77081,32.80829 h 34.39584"
       id="path1537" /><path
       style="fill:none;stroke:#fefefe;stroke-width:1.5875;stroke-linecap:butt;stroke-linejoin:miter;stroke-miterlimit:4;stroke-dasharray:none;stroke-opacity:1"
       d="m 121.70831,26.458296 10.58334,-13.229164 h 15.875"
       id="path1541" /><circle
       style="fill:#000000;fill-rule:evenodd;stroke:#fefefe;stroke-width:1.5875;stroke-miterlimit:4;stroke-dasharray:none;stroke-opacity:1"
       id="circle1597"
       cx="113.77081"
       cy="32.808331"
       r="1.3229166" /><circle
       style="fill:#000000;fill-rule:evenodd;stroke-width:0.264583"
       id="circle1575"
       cx="113.77081"
       cy="32.808331"
       r="1.3229166" /><circle
       style="fill:#000000;fill-rule:evenodd;stroke:#fefefe;stroke-width:1.5875;stroke-miterlimit:4;stroke-dasharray:none;stroke-opacity:1"
       id="circle1603"
       cx="104.24582"
       cy="26.458326"
       r="1.3229166" /><circle
       style="fill:#000000;fill-rule:evenodd;stroke-width:0.264583"
       id="circle1581"
       cx="104.24582"
       cy="26.458326"
       r="1.3229166" /><circle
       style="fill:#000000;fill-rule:evenodd;stroke:#fefefe;stroke-width:1.5875;stroke-miterlimit:4;stroke-dasharray:none;stroke-opacity:1"
       id="circle1605"
       cx="121.70831"
       cy="26.458326"
       r="1.3229166" /><circle
       style="fill:#000000;fill-rule:evenodd;stroke-width:0.264583"
       id="circle1583"
       cx="121.70831"
       cy="26.458326"
       r="1.3229166" /><path
       style="fill:none;stroke:#010101;stroke-width:0.529167;stroke-linecap:butt;stroke-linejoin:miter;stroke-miterlimit:4;stroke-dasharray:none;stroke-opacity:1"
       d="M 104.24582,26.458297 93.662496,13.229132 H 77.787505"
       id="path1474" /><path
       style="fill:none;stroke:#010101;stroke-width:0.529167;stroke-linecap:butt;stroke-linejoin:miter;stroke-miterlimit:4;stroke-dasharray:none;stroke-opacity:1"
       d="m 113.77081,32.80829 h 34.39584"
       id="path1482" /><path
       style="fill:none;stroke:#010101;stroke-width:0.529167;stroke-linecap:butt;stroke-linejoin:miter;stroke-miterlimit:4;stroke-dasharray:none;stroke-opacity:1"
       d="m 121.70831,26.458296 10.58334,-13.229164 h 15.875"
       id="path1488" /><text
       xml:space="preserve"
       style="font-style:normal;font-weight:normal;font-size:5.35108px;line-height:1.25;font-family:sans-serif;letter-spacing:0px;word-spacing:0px;fill:#000000;fill-opacity:1;stroke:none;stroke-width:0.264583"
       x="75.901367"
       y="15.051116"
       id="text1046"><tspan
         id="tspan1044"
         x="75.901367"
         y="15.051116"
         style="font-style:normal;font-variant:normal;font-weight:normal;font-stretch:normal;font-family:Arial;-inkscape-font-specification:Arial;text-align:end;text-anchor:end;stroke-width:0.264583">Button1</tspan></text><text
       xml:space="preserve"
       style="font-style:normal;font-weight:normal;font-size:5.35108px;line-height:1.25;font-family:sans-serif;letter-spacing:0px;word-spacing:0px;fill:#000000;fill-opacity:1;stroke:none;stroke-width:0.264583"
       x="169.86674"
       y="15.051116"
       id="text1058"><tspan
         id="tspan1056"
         x="169.86674"
         y="15.051116"
         style="font-style:normal;font-variant:normal;font-weight:normal;font-stretch:normal;font-family:Arial;-inkscape-font-specification:Arial;text-align:end;text-anchor:end;stroke-width:0.264583">Button2</tspan></text><text
       xml:space="preserve"
       style="font-style:normal;font-weight:normal;font-size:5.35108px;line-height:1.25;font-family:sans-serif;text-align:start;letter-spacing:0px;word-spacing:0px;text-anchor:start;fill:#000000;fill-opacity:1;stroke:none;stroke-width:0.264583"
       x="151.42015"
       y="27.798866"
       id="text1066"><tspan
         id="tspan1064"
         x="151.42015"
         y="27.798866"
         style="font-style:normal;font-variant:normal;font-weight:normal;font-stretch:normal;font-family:Arial;-inkscape-font-specification:Arial;text-align:start;text-anchor:start;stroke-width:0.264583">Button3</tspan><tspan
         x="151.42015"
         y="34.536522"
         style="font-style:normal;font-variant:normal;font-weight:normal;font-stretch:normal;font-family:Arial;-inkscape-font-specification:Arial;text-align:start;text-anchor:start;stroke-width:0.264583"
         id="tspan4378">ScrollUp</tspan><tspan
         x="151.42015"
         y="41.274178"
         style="font-style:normal;font-variant:normal;font-weight:normal;font-stretch:normal;font-family:Arial;-inkscape-font-specification:Arial;text-align:start;text-anchor:start;stroke-width:0.264583"
         id="tspan4380">ScrollDown</tspan></text><text
       xml:space="preserve"
       style="font-style:normal;font-weight:normal;font-size:5.35108px;line-height:1.25;font-family:sans-serif;text-align:start;letter-spacing:0px;word-spacing:0px;text-anchor:start;fill:#000000;fill-opacity:1;stroke:none;stroke-width:0.264583"
       x="160.71133"
       y="54.778122"
       id="text80212"><tspan
         id="tspan80210"
         x="160.71133"
         y="54.778122"
         style="font-style:normal;font-variant:normal;font-weight:normal;font-stretch:normal;font-family:Arial;-inkscape-font-specification:Arial;text-align:start;text-anchor:start;stroke-width:0.264583">Button6</tspan><tspan
         x="160.71133"
         y="61.515778"
         style="font-style:normal;font-variant:normal;font-weight:normal;font-stretch:normal;font-family:Arial;-inkscape-font-specification:Arial;text-align:start;text-anchor:start;stroke-width:0.264583"
         id="tspan2092" /></text><path
       style="fill:none;stroke:#fefefe;stroke-width:1.58749;stroke-linecap:butt;stroke-linejoin:miter;stroke-miterlimit:4;stroke-dasharray:none;stroke-opacity:1"
       d="M 47.845196,55.033293 H 25.929165"
       id="path80226" /><circle
       style="fill:#000000;fill-rule:evenodd;stroke:#fefefe;stroke-width:1.5875;stroke-miterlimit:4;stroke-dasharray:none;stroke-opacity:1"
       id="circle80228"
       cx="48.683338"
       cy="55.03334"
       r="1.3229166" /><circle
       style="fill:#000000;fill-rule:evenodd;stroke-width:0.264583"
       id="circle80230"
       cx="48.683338"
       cy="55.03334"
       r="1.3229166" /><circle
       style="fill:#000000;fill-rule:evenodd;stroke-width:0.264583"
       id="circle80232"
       cx="48.683338"
       cy="55.03334"
       r="1.3229166" /><path
       style="fill:none;stroke:#010101;stroke-width:0.529167;stroke-linecap:butt;stroke-linejoin:miter;stroke-miterlimit:4;stroke-dasharray:none;stroke-opacity:1"
       d="M 48.317684,55.033296 H 25.929168"
       id="path80234" /><text
       xml:space="preserve"
       style="font-style:normal;font-weight:normal;font-size:5.35108px;line-height:1.25;font-family:sans-serif;letter-spacing:0px;word-spacing:0px;fill:#000000;fill-opacity:1;stroke:none;stroke-width:0.264583"
       x="22.252705"
       y="56.761879"
       id="text80238"><tspan
         id="tspan80236"
         x="22.252705"
         y="56.761879"
         style="font-style:normal;font-variant:normal;font-weight:normal;font-stretch:normal;font-family:Arial;-inkscape-font-specification:Arial;text-align:end;text-anchor:end;stroke-width:0.264583">Button5</tspan></text><path
       style="fill:none;stroke:#fefefe;stroke-width:1.58749;stroke-linecap:butt;stroke-linejoin:miter;stroke-miterlimit:4;stroke-dasharray:none;stroke-opacity:1"
       d="M 47.845196,65.08746 H 25.929165"
       id="path80244" /><circle
       style="fill:#000000;fill-rule:evenodd;stroke:#fefefe;stroke-width:1.5875;stroke-miterlimit:4;stroke-dasharray:none;stroke-opacity:1"
       id="circle80246"
       cx="49.212505"
       cy="65.087509"
       r="1.3229166" /><circle
       style="fill:#000000;fill-rule:evenodd;stroke-width:0.264583"
       id="circle80248"
       cx="49.212505"
       cy="65.087509"
       r="1.3229166" /><circle
       style="fill:#000000;fill-rule:evenodd;stroke-width:0.264583"
       id="circle80250"
       cx="49.212505"
       cy="65.087509"
       r="1.3229166" /><path
       style="fill:none;stroke:#010101;stroke-width:0.529167;stroke-linecap:butt;stroke-linejoin:miter;stroke-miterlimit:4;stroke-dasharray:none;stroke-opacity:1"
       d="M 48.317684,65.087463 H 25.929168"
       id="path80252" /><text
       xml:space="preserve"
       style="font-style:normal;font-weight:normal;font-size:5.35108px;line-height:1.25;font-family:sans-serif;letter-spacing:0px;word-spacing:0px;fill:#000000;fill-opacity:1;stroke:none;stroke-width:0.264583"
       x="22.252705"
       y="66.816048"
       id="text80256"><tspan
         id="tspan80254"
         x="22.252705"
         y="66.816048"
         style="font-style:normal;font-variant:normal;font-weight:normal;font-stretch:normal;font-family:Arial;-inkscape-font-specification:Arial;text-align:end;text-anchor:end;stroke-width:0.264583">Button4</tspan></text><circle
       style="fill:#000000;fill-rule:evenodd;stroke:#fefefe;stroke-width:1.5875;stroke-miterlimit:4;stroke-dasharray:none;stroke-opacity:1"
       id="circle80204"
       cx="-91.02816"
       cy="170.21881"
       r="1.3229166"
       transform="rotate(-90)" /><path
       style="fill:none;stroke:#fefefe;stroke-width:1.5875;stroke-linecap:butt;stroke-linejoin:miter;stroke-miterlimit:4;stroke-dasharray:none;stroke-opacity:1"
       d="M 170.20454,91.388058 V 62.511334"
       id="path80202" /><circle
       style="fill:#000000;fill-rule:evenodd;stroke-width:0.264583"
       id="circle80206"
       cx="-91.02816"
       cy="170.21881"
       r="1.3229166"
       transform="rotate(-90)" /><path
       style="fill:none;stroke:#010101;stroke-width:0.529167;stroke-linecap:butt;stroke-linejoin:miter;stroke-miterlimit:4;stroke-dasharray:none;stroke-opacity:1"
       d="M 170.20454,91.388057 V 57.748833"
       id="path80208" /></g></svg>
